<?xml version="1.0" encoding="utf-8"?>
<!-- Generator: Adobe Illustrator 24.0.0, SVG Export Plug-In . SVG Version: 6.00 Build 0)  -->
<svg version="1.1" id="Vrstva_1" xmlns="http://www.w3.org/2000/svg" xmlns:xlink="http://www.w3.org/1999/xlink" x="0px" y="0px"
	 viewBox="0 0 595.28 841.89" style="enable-background:new 0 0 595.28 841.89;" xml:space="preserve">
<style type="text/css">
	.st0{fill:none;stroke:#000000;stroke-width:8;}
</style>
<path class="st0" d="M386.06,374.61c0,0-30.54,39.1-58.01,63c-29.48,25.66-59.14,28.16-64.14,28.16c-5,0-11.28-3.53-9.92-10.22
	c0.41-2.01,4.16-5.01,9.12-3.16c8.73,3.25,16.85,25.59,14.7,52.34c-1.19,14.75-7.78,49.77-19.11,49.77
	c-11.32,0-2.35-36.08,1.77-52.01c3.42-13.23,30.16-110.94,44.6-160.69c14.44-49.75,20.39-55.3,29.94-55.3
	c9.55,0,11.17,14.44,4.22,33.1c-6.29,16.87-18.04,33.25-25.14,43.34c-6.01,8.53-26.14,31.76-52.93,58.89
	c-24.67,24.97-52.2,45.04-52.2,45.04"/>
</svg>
