solid OpenSCAD_Model
  facet normal 0 -0.816497 -0.577349
    outer loop
      vertex -14.1421 14.1421 0
      vertex 14.1421 14.1421 0
      vertex 0 0 20
    endloop
  endfacet
  facet normal 0.816497 0 -0.577349
    outer loop
      vertex -14.1421 -14.1421 0
      vertex -14.1421 14.1421 0
      vertex 0 0 20
    endloop
  endfacet
  facet normal 0 0.816497 -0.577349
    outer loop
      vertex 14.1421 -14.1421 0
      vertex -14.1421 -14.1421 0
      vertex 0 0 20
    endloop
  endfacet
  facet normal -0.816497 -0 -0.577349
    outer loop
      vertex 14.1421 14.1421 0
      vertex 14.1421 -14.1421 0
      vertex 0 0 20
    endloop
  endfacet
  facet normal 0 -0.816497 0.577349
    outer loop
      vertex 14.1421 14.1421 0
      vertex -14.1421 14.1421 0
      vertex 0 0 -20
    endloop
  endfacet
  facet normal 0.816497 0 0.577349
    outer loop
      vertex -14.1421 14.1421 0
      vertex -14.1421 -14.1421 0
      vertex 0 0 -20
    endloop
  endfacet
  facet normal -0 0.816497 0.577349
    outer loop
      vertex -14.1421 -14.1421 0
      vertex 14.1421 -14.1421 0
      vertex 0 0 -20
    endloop
  endfacet
  facet normal -0.816497 0 0.577349
    outer loop
      vertex 14.1421 -14.1421 0
      vertex 14.1421 14.1421 0
      vertex 0 0 -20
    endloop
  endfacet
endsolid OpenSCAD_Model
