solid OpenSCAD_Model
  facet normal -1 0 0
    outer loop
      vertex 0 10 0
      vertex 0 0 0
      vertex 0 10 40
    endloop
  endfacet
  facet normal -1 0 0
    outer loop
      vertex 0 70 40
      vertex 0 80 0
      vertex 0 70 0
    endloop
  endfacet
  facet normal -1 0 0
    outer loop
      vertex 0 80 0
      vertex 0 70 40
      vertex 0 80 50
    endloop
  endfacet
  facet normal -1 0 0
    outer loop
      vertex 0 10 40
      vertex 0 80 50
      vertex 0 70 40
    endloop
  endfacet
  facet normal -1 0 0
    outer loop
      vertex 0 10 40
      vertex 0 0 50
      vertex 0 80 50
    endloop
  endfacet
  facet normal -1 0 0
    outer loop
      vertex 0 0 50
      vertex 0 10 40
      vertex 0 0 0
    endloop
  endfacet
  facet normal -0 0 1
    outer loop
      vertex 0 80 50
      vertex 40 0 50
      vertex 40 80 50
    endloop
  endfacet
  facet normal 0 0 1
    outer loop
      vertex 40 0 50
      vertex 0 80 50
      vertex 0 0 50
    endloop
  endfacet
  facet normal 1 0 0
    outer loop
      vertex 40 80 50
      vertex 40 70 40
      vertex 40 80 0
    endloop
  endfacet
  facet normal 1 0 0
    outer loop
      vertex 40 80 50
      vertex 40 10 40
      vertex 40 70 40
    endloop
  endfacet
  facet normal 1 -0 0
    outer loop
      vertex 40 0 50
      vertex 40 10 40
      vertex 40 80 50
    endloop
  endfacet
  facet normal 1 0 0
    outer loop
      vertex 40 0 0
      vertex 40 10 40
      vertex 40 0 50
    endloop
  endfacet
  facet normal 1 0 0
    outer loop
      vertex 40 10 40
      vertex 40 0 0
      vertex 40 10 0
    endloop
  endfacet
  facet normal 1 0 0
    outer loop
      vertex 40 80 0
      vertex 40 70 40
      vertex 40 70 0
    endloop
  endfacet
  facet normal 0 0 -1
    outer loop
      vertex 0 70 0
      vertex 40 80 0
      vertex 40 70 0
    endloop
  endfacet
  facet normal -0 0 -1
    outer loop
      vertex 40 80 0
      vertex 0 70 0
      vertex 0 80 0
    endloop
  endfacet
  facet normal 0 0 -1
    outer loop
      vertex 0 0 0
      vertex 40 10 0
      vertex 40 0 0
    endloop
  endfacet
  facet normal -0 0 -1
    outer loop
      vertex 40 10 0
      vertex 0 0 0
      vertex 0 10 0
    endloop
  endfacet
  facet normal 0 -1 0
    outer loop
      vertex 0 0 0
      vertex 40 0 50
      vertex 0 0 50
    endloop
  endfacet
  facet normal 0 -1 -0
    outer loop
      vertex 40 0 50
      vertex 0 0 0
      vertex 40 0 0
    endloop
  endfacet
  facet normal 0 1 -0
    outer loop
      vertex 40 80 0
      vertex 0 80 50
      vertex 40 80 50
    endloop
  endfacet
  facet normal 0 1 0
    outer loop
      vertex 0 80 50
      vertex 40 80 0
      vertex 0 80 0
    endloop
  endfacet
  facet normal 0 0 -1
    outer loop
      vertex 0 10 40
      vertex 40 70 40
      vertex 40 10 40
    endloop
  endfacet
  facet normal -0 0 -1
    outer loop
      vertex 40 70 40
      vertex 0 10 40
      vertex 0 70 40
    endloop
  endfacet
  facet normal 0 -1 0
    outer loop
      vertex 0 70 0
      vertex 40 70 40
      vertex 0 70 40
    endloop
  endfacet
  facet normal 0 -1 -0
    outer loop
      vertex 40 70 40
      vertex 0 70 0
      vertex 40 70 0
    endloop
  endfacet
  facet normal 0 1 -0
    outer loop
      vertex 40 10 0
      vertex 0 10 40
      vertex 40 10 40
    endloop
  endfacet
  facet normal 0 1 0
    outer loop
      vertex 0 10 40
      vertex 40 10 0
      vertex 0 10 0
    endloop
  endfacet
endsolid OpenSCAD_Model
